<?xml version="1.0" encoding="UTF-8" ?>
<svg version="1.1" width="120" height="120" xmlns="http://www.w3.org/2000/svg" shape-rendering="crispEdges">
<rect x="0" y="0" width="30" height="30" fill="#FFFFFF" />
<rect x="30" y="0" width="30" height="30" fill="#646464" />
<rect x="60" y="0" width="30" height="30" fill="#FFFFFF" />
<rect x="90" y="0" width="30" height="30" fill="#646464" />
<rect x="0" y="30" width="30" height="30" fill="#646464" />
<rect x="30" y="30" width="30" height="30" fill="#FFFFFF" />
<rect x="60" y="30" width="30" height="30" fill="#646464" />
<rect x="90" y="30" width="30" height="30" fill="#FFFFFF" />
<rect x="0" y="60" width="30" height="30" fill="#FFFFFF" />
<rect x="30" y="60" width="30" height="30" fill="#646464" />
<rect x="60" y="60" width="30" height="30" fill="#FFFFFF" />
<rect x="90" y="60" width="30" height="30" fill="#646464" />
<rect x="0" y="90" width="30" height="30" fill="#646464" />
<rect x="30" y="90" width="30" height="30" fill="#FFFFFF" />
<rect x="60" y="90" width="30" height="30" fill="#646464" />
<rect x="90" y="90" width="30" height="30" fill="#FFFFFF" />
</svg>